{
    "asset" : {
        "generator" : "Khronos glTF Blender I/O v1.6.16",
        "version" : "2.0"
    },
    "extensionsUsed" : [
        "KHR_materials_transmission"
    ],
    "scene" : 0,
    "scenes" : [
        {
            "name" : "Scene",
            "nodes" : [
                0,
                1,
                2
            ]
        }
    ],
    "nodes" : [
        {
            "name" : "Light",
            "rotation" : [
                0.16907575726509094,
                0.7558803558349609,
                -0.27217137813568115,
                0.570947527885437
            ],
            "scale" : [
                3.754995346069336,
                3.196531057357788,
                2.679359197616577
            ],
            "translation" : [
                -0.8072200417518616,
                3.1527862548828125,
                4.338679313659668
            ]
        },
        {
            "name" : "Camera",
            "rotation" : [
                0.483536034822464,
                0.33687159419059753,
                -0.20870360732078552,
                0.7804827094078064
            ],
            "scale" : [
                6,
                6,
                6
            ],
            "translation" : [
                20.680866241455078,
                15.053014755249023,
                18.71500587463379
            ]
        },
        {
            "mesh" : 0,
            "name" : "heart",
            "rotation" : [
                0.015087143518030643,
                0,
                0,
                0.9998862743377686
            ],
            "scale" : [
                0.25,
                0.20465150475502014,
                0.3509249985218048
            ]
        }
    ],
    "materials" : [
        {
            "doubleSided" : true,
            "extensions" : {
                "KHR_materials_transmission" : {
                    "transmissionFactor" : 0.9900000095367432
                }
            },
            "name" : "Heart",
            "pbrMetallicRoughness" : {
                "baseColorFactor" : [
                    0.800000011920929,
                    0.800000011920929,
                    0.800000011920929,
                    1
                ],
                "metallicFactor" : 0,
                "roughnessFactor" : 0
            }
        }
    ],
    "meshes" : [
        {
            "name" : "heart",
            "primitives" : [
                {
                    "attributes" : {
                        "POSITION" : 0,
                        "NORMAL" : 1,
                        "TEXCOORD_0" : 2
                    },
                    "indices" : 3,
                    "material" : 0
                }
            ]
        }
    ],
    "accessors" : [
        {
            "bufferView" : 0,
            "componentType" : 5126,
            "count" : 11957,
            "max" : [
                10.625,
                19.961200714111328,
                4.570099830627441
            ],
            "min" : [
                -10.625,
                0.046300001442432404,
                -4.571199893951416
            ],
            "type" : "VEC3"
        },
        {
            "bufferView" : 1,
            "componentType" : 5126,
            "count" : 11957,
            "type" : "VEC3"
        },
        {
            "bufferView" : 2,
            "componentType" : 5126,
            "count" : 11957,
            "type" : "VEC2"
        },
        {
            "bufferView" : 3,
            "componentType" : 5123,
            "count" : 65514,
            "type" : "SCALAR"
        }
    ],
    "bufferViews" : [
        {
            "buffer" : 0,
            "byteLength" : 143484,
            "byteOffset" : 0
        },
        {
            "buffer" : 0,
            "byteLength" : 143484,
            "byteOffset" : 143484
        },
        {
            "buffer" : 0,
            "byteLength" : 95656,
            "byteOffset" : 286968
        },
        {
            "buffer" : 0,
            "byteLength" : 131028,
            "byteOffset" : 382624
        }
    ],
    "buffers" : [
        {
            "byteLength" : 513652,
            "uri" : "data:application/octet-stream;base64,"
        }
    ]
}
